<?xml version="1.0" encoding="iso-8859-1"?>
<!-- Generator: Adobe Illustrator 22.1.0, SVG Export Plug-In . SVG Version: 6.00 Build 0)  -->
<svg version="1.1" id="Layer_1" xmlns="http://www.w3.org/2000/svg" xmlns:xlink="http://www.w3.org/1999/xlink" x="0px" y="0px"	 width="64" height="64" viewBox="0 0 64 64" style="enable-background:new 0 0 64 64;" xml:space="preserve">
<g id="icon-encrypt-emergency-call-pressed">
	<rect id="icon-encrypt-emergency-call-pressed_1_" style="opacity:0;fill:#FFFFFF;" width="64" height="64"/>
	<rect width="64" height="64"/>
	<g style="opacity:0.6;">
		<path style="fill:#FFFFFF;" d="M1.282,0.297H32c17.55,0,31.777,14.188,31.777,31.699v30.65c0,0.584-0.474,1.057-1.059,1.057H32
			c-17.55,0-31.777-14.196-31.777-31.707V1.354C0.223,0.771,0.697,0.297,1.282,0.297z"/>
		<g>
			<path style="fill:#DB4D4D;" d="M14.473,32.369l6.994-3.824c-0.006-0.01-0.011-0.019-0.017-0.028
				c3.789-2.034,5.309-6.771,4.32-10.67c-0.716-2.824-1.788-7.853-1.788-7.853s-4.334,0-7.379,0.001
				c-4.082,0.001-8.091,5.849-6.17,12.644C11.399,26.057,12.778,29.309,14.473,32.369z"/>
			<path style="fill:#DB4D4D;" d="M48.066,40.14c-3.71-0.932-8.314,0.567-10.453,3.769l-4.024,7.402
				c2.938,1.609,6.041,2.94,9.286,3.917c6.784,2.044,12.942-2,12.942-6.077c0-3.013-0.014-7.063-0.014-7.063
				S50.893,40.851,48.066,40.14z"/>
		</g>
		<path style="fill:#CC0000;" d="M37.344,44.338c-0.015,0.027-0.034,0.052-0.048,0.078c-5.896-3.203-10.041-7.048-13.68-12.43
			c-0.544-0.787-1.058-1.595-1.545-2.422c-0.208-0.344-0.415-0.69-0.621-1.047c0.004-0.002,0.008-0.006,0.013-0.008
			c-3.021-5.508-4.763-11.812-4.847-18.515c-0.004,0-0.009,0.001-0.013,0.001c-4.082,0.05-8.091,5.849-6.17,12.644
			c4.401,15.574,16.931,27.918,32.442,32.59c6.784,2.044,12.887-2,12.942-6.077c0-0.004,0-0.008,0-0.012
			C49.133,49.055,42.844,47.331,37.344,44.338z"/>
	</g>
</g>
</svg>
